<?xml version="1.0" encoding="utf-8"?>
<!-- Generator: Adobe Illustrator 25.1.0, SVG Export Plug-In . SVG Version: 6.00 Build 0)  -->
<svg version="1.1" id="Layer_1" xmlns="http://www.w3.org/2000/svg" xmlns:xlink="http://www.w3.org/1999/xlink" x="0px" y="0px"
	 viewBox="0 0 100 100" style="enable-background:new 0 0 100 100;" xml:space="preserve">
<style type="text/css">
	.st0{fill:none;stroke:#A8ABB0;stroke-linecap:round;stroke-miterlimit:10;}
	.st1{fill:none;stroke:#A8ABB0;stroke-miterlimit:10;}
	.st2{fill:none;stroke:#FFFFFF;stroke-linecap:round;stroke-miterlimit:10;}
	.st3{fill:none;stroke:#932069;stroke-width:3.5;stroke-linecap:round;stroke-miterlimit:10;}
	.st4{fill:#595783;}
</style>
<g id="XMLID_7_">
	<g>
		<line class="st0" x1="44.5" y1="2" x2="66.5" y2="40.8"/>
		<line class="st0" x1="88.7" y1="13" x2="71.6" y2="41.4"/>
		<line class="st0" x1="98.6" y1="46.7" x2="74.5" y2="46"/>
		<line class="st0" x1="86.2" y1="63" x2="73" y2="48.8"/>
		<line class="st0" x1="65.5" y1="63" x2="69.5" y2="48.8"/>
		<line class="st0" x1="61.2" y1="45.6" x2="1.6" y2="45.6"/>
		<path class="st0" d="M5,46.7c1.1-11.4,5.9-21.8,13.2-30"/>
		<path class="st0" d="M22.5,19.1C27.9,11,35.7,5.2,44.4,2"/>
		<path class="st0" d="M47.4,6.2C54.3,2.8,61.9,1.8,69.1,3"/>
		<path class="st0" d="M2.9,63.5c-2.4-5.8-2.8-12-1.5-17.8"/>
		<path class="st0" d="M95.4,30.2c2.8,5.2,3.8,10.9,3.2,16.5"/>
		<path class="st0" d="M84.1,13.9c6.5,3.8,11.3,9.4,14.2,15.9"/>
		<path class="st0" d="M68,5.7c7.5-0.3,14.6,2.9,20.5,7.1"/>
		<path class="st0" d="M91.2,55.6c-0.9,3-2.7,5.6-5,7.4"/>
		<path class="st0" d="M96.6,45.6c-0.1,4.2-1.6,8-4,11.2"/>
		<path class="st0" d="M83.6,61.6c-2.9,2.1-6.2,3.3-9.6,3.3"/>
		<path class="st1" d="M75.9,62.5c-3.3,1.3-6.9,1.4-10.2,0.6"/>
		<path class="st0" d="M68.5,61.6c-3.4-1-6.3-3-8.4-5.7"/>
		<path class="st0" d="M61.2,46.6"/>
		<line class="st0" x1="18.2" y1="16.7" x2="63.1" y2="43"/>
		<line class="st0" x1="69.1" y1="3.2" x2="69.5" y2="40.9"/>
		<line class="st0" x1="98.3" y1="29.8" x2="74" y2="43.8"/>
		<line class="st0" x1="92.6" y1="56.8" x2="74.2" y2="47.3"/>
		<line class="st0" x1="74" y1="64.8" x2="71.1" y2="49.4"/>
		<path class="st0" d="M7,46.5"/>
		<path class="st0" d="M97.8,46.5"/>
		<path class="st0" d="M86.3,16.2"/>
		<path class="st0" d="M68.9,4.2"/>
		<path class="st2" d="M52.4,1.1"/>
		<path class="st0" d="M59.5,55.9"/>
		<path class="st0" d="M59.5,56.4"/>
		<line class="st0" x1="60" y1="55.9" x2="69.5" y2="47.7"/>
		<path class="st3" d="M69.5,47.7c0,1,0.7,1.8,1.6,1.8c1.9,0,3.4-1.5,3.4-3.4c0-2.9-2.3-5.2-5.2-5.2h0.1c-4.7,0-8.6,3.8-8.6,8.6
			C60.9,57,67,63,74.5,63h-0.1c12.3,0,22.2-9.9,22.2-22.2c0-19.7-15.9-35.6-35.6-35.6H61C29.1,5.2,3.2,31.1,3.2,63"/>
	</g>
</g>
<g>
	<g>
		<g>
			<path class="st4" d="M0.1,85.9V67.3h5.6L9,80l3.3-12.7H18v18.6h-3.5V71.3l-3.7,14.6H7.2L3.5,71.3v14.6H0.1z"/>
			<path class="st4" d="M29.5,81.6l3.5,0.6c-0.5,1.3-1.2,2.3-2.2,3c-1,0.7-2.2,1-3.7,1c-2.3,0-4.1-0.8-5.2-2.3
				c-0.9-1.2-1.3-2.8-1.3-4.6c0-2.2,0.6-4,1.7-5.2c1.2-1.3,2.6-1.9,4.4-1.9c2,0,3.6,0.7,4.7,2c1.2,1.3,1.7,3.3,1.7,6.1h-8.9
				c0,1.1,0.3,1.9,0.9,2.5c0.5,0.6,1.2,0.9,2.1,0.9c0.6,0,1-0.2,1.4-0.5C29,82.8,29.3,82.3,29.5,81.6z M29.7,78c0-1-0.3-1.8-0.8-2.3
				c-0.5-0.5-1.1-0.8-1.8-0.8c-0.8,0-1.4,0.3-1.9,0.8S24.4,77,24.4,78H29.7z"/>
			<path class="st4" d="M48.4,85.9h-3.3v-2c-0.5,0.8-1.2,1.3-1.9,1.7c-0.7,0.4-1.5,0.6-2.3,0.6c-1.5,0-2.9-0.6-4-1.9
				c-1.1-1.2-1.7-3-1.7-5.2c0-2.3,0.5-4,1.6-5.2c1.1-1.2,2.4-1.8,4.1-1.8c1.5,0,2.8,0.6,3.9,1.9v-6.7h3.6V85.9z M39,78.9
				c0,1.4,0.2,2.5,0.6,3.1c0.6,0.9,1.4,1.4,2.4,1.4c0.8,0,1.5-0.3,2.1-1c0.6-0.7,0.9-1.7,0.9-3.1c0-1.5-0.3-2.7-0.8-3.3
				c-0.6-0.7-1.3-1-2.1-1c-0.8,0-1.6,0.3-2.1,1C39.2,76.5,39,77.5,39,78.9z"/>
			<path class="st4" d="M52,70.6v-3.3h3.6v3.3H52z M52,85.9V72.4h3.6v13.4H52z"/>
			<path class="st4" d="M71.4,85.9h-3.6V79c0-1.5-0.1-2.4-0.2-2.8c-0.2-0.4-0.4-0.8-0.7-1s-0.8-0.4-1.2-0.4c-0.6,0-1.2,0.2-1.7,0.5
				s-0.8,0.8-1,1.3c-0.2,0.6-0.3,1.6-0.3,3.1v6.1h-3.6V72.4h3.3v2c1.2-1.5,2.6-2.3,4.4-2.3c0.8,0,1.5,0.1,2.2,0.4
				c0.6,0.3,1.1,0.6,1.5,1.1c0.3,0.4,0.6,0.9,0.7,1.5c0.1,0.6,0.2,1.4,0.2,2.4V85.9z"/>
			<path class="st4" d="M77.7,76.5l-3.2-0.6c0.4-1.3,1-2.3,1.9-2.9c0.9-0.6,2.2-0.9,4-0.9c1.6,0,2.8,0.2,3.5,0.6
				c0.8,0.4,1.3,0.9,1.6,1.4c0.3,0.6,0.5,1.6,0.5,3.2l0,4.2c0,1.2,0.1,2.1,0.2,2.6c0.1,0.6,0.3,1.2,0.6,1.8h-3.5
				c-0.1-0.2-0.2-0.6-0.3-1.1c-0.1-0.2-0.1-0.4-0.1-0.4c-0.6,0.6-1.3,1-2,1.3c-0.7,0.3-1.4,0.4-2.2,0.4c-1.4,0-2.5-0.4-3.3-1.1
				c-0.8-0.8-1.2-1.7-1.2-2.8c0-0.8,0.2-1.4,0.5-2c0.4-0.6,0.9-1.1,1.5-1.4s1.6-0.6,2.8-0.8c1.7-0.3,2.8-0.6,3.5-0.9v-0.4
				c0-0.7-0.2-1.2-0.5-1.5c-0.3-0.3-1-0.4-1.9-0.4c-0.6,0-1.1,0.1-1.5,0.4C78.2,75.5,77.9,75.9,77.7,76.5z M82.4,79.4
				c-0.5,0.2-1.2,0.3-2.2,0.5c-1,0.2-1.6,0.4-1.9,0.6c-0.5,0.3-0.7,0.7-0.7,1.3c0,0.5,0.2,0.9,0.6,1.3c0.4,0.4,0.8,0.5,1.4,0.5
				c0.6,0,1.3-0.2,1.8-0.6c0.4-0.3,0.7-0.7,0.8-1.2c0.1-0.3,0.1-0.9,0.1-1.7V79.4z"/>
			<path class="st4" d="M88,85.9v-2.8l5-5.8c0.8-0.9,1.4-1.6,1.8-2c-0.4,0-1,0-1.6,0.1l-4.7,0v-3h11.1v2.5l-5.1,5.9l-1.8,2
				c1-0.1,1.6-0.1,1.8-0.1h5.5v3.1H88z"/>
		</g>
	</g>
	<path class="st4" d="M0,97.1v-6h1.2l1.4,4.2c0.1,0.4,0.2,0.7,0.3,0.9c0.1-0.2,0.2-0.5,0.3-1l1.4-4.1h1.1v6H4.9v-5l-1.7,5H2.5
		l-1.7-5.1v5.1H0z"/>
	<path class="st4" d="M9.8,95.7l0.8,0.1c-0.1,0.4-0.3,0.8-0.7,1c-0.3,0.2-0.7,0.4-1.2,0.4c-0.6,0-1.1-0.2-1.5-0.6
		c-0.4-0.4-0.6-0.9-0.6-1.6c0-0.7,0.2-1.3,0.6-1.7c0.4-0.4,0.9-0.6,1.5-0.6c0.6,0,1,0.2,1.4,0.6c0.4,0.4,0.5,0.9,0.5,1.7
		c0,0,0,0.1,0,0.2H7.4c0,0.5,0.2,0.8,0.4,1.1c0.2,0.3,0.5,0.4,0.9,0.4c0.3,0,0.5-0.1,0.7-0.2C9.6,96.3,9.7,96.1,9.8,95.7z M7.4,94.6
		h2.4c0-0.4-0.1-0.6-0.3-0.8c-0.2-0.3-0.5-0.4-0.9-0.4c-0.3,0-0.6,0.1-0.8,0.3C7.6,93.9,7.4,94.2,7.4,94.6z"/>
	<path class="st4" d="M14.3,97.1v-0.5c-0.3,0.4-0.7,0.6-1.2,0.6c-0.3,0-0.7-0.1-0.9-0.3c-0.3-0.2-0.5-0.5-0.7-0.8
		c-0.2-0.3-0.2-0.7-0.2-1.2c0-0.4,0.1-0.8,0.2-1.2c0.1-0.4,0.4-0.6,0.6-0.8c0.3-0.2,0.6-0.3,1-0.3c0.3,0,0.5,0.1,0.7,0.2
		c0.2,0.1,0.4,0.3,0.5,0.4v-2.1H15v6H14.3z M12,95c0,0.6,0.1,1,0.3,1.2c0.2,0.3,0.5,0.4,0.8,0.4c0.3,0,0.6-0.1,0.8-0.4
		c0.2-0.3,0.3-0.7,0.3-1.2c0-0.6-0.1-1-0.3-1.3c-0.2-0.3-0.5-0.4-0.8-0.4c-0.3,0-0.6,0.1-0.8,0.4C12.1,94,12,94.4,12,95z"/>
	<path class="st4" d="M16.1,92v-0.8h0.7V92H16.1z M16.1,97.1v-4.3h0.7v4.3H16.1z"/>
	<path class="st4" d="M20.8,95.6l0.7,0.1c-0.1,0.5-0.3,0.9-0.6,1.2c-0.3,0.3-0.7,0.4-1.2,0.4c-0.6,0-1.1-0.2-1.4-0.6
		c-0.4-0.4-0.5-0.9-0.5-1.7c0-0.5,0.1-0.9,0.2-1.2c0.2-0.4,0.4-0.6,0.7-0.8c0.3-0.2,0.7-0.3,1-0.3c0.5,0,0.9,0.1,1.2,0.4
		c0.3,0.2,0.5,0.6,0.6,1l-0.7,0.1c-0.1-0.3-0.2-0.5-0.4-0.7c-0.2-0.1-0.4-0.2-0.6-0.2c-0.4,0-0.7,0.1-0.9,0.4s-0.3,0.7-0.3,1.3
		c0,0.6,0.1,1,0.3,1.3c0.2,0.3,0.5,0.4,0.9,0.4c0.3,0,0.5-0.1,0.7-0.3C20.6,96.2,20.7,95.9,20.8,95.6z"/>
	<path class="st4" d="M25,96.6c-0.3,0.2-0.5,0.4-0.8,0.5c-0.3,0.1-0.5,0.1-0.8,0.1c-0.5,0-0.8-0.1-1.1-0.3s-0.4-0.5-0.4-0.9
		c0-0.2,0-0.4,0.1-0.6c0.1-0.2,0.2-0.3,0.4-0.4c0.2-0.1,0.3-0.2,0.5-0.2c0.1,0,0.4-0.1,0.7-0.1c0.6-0.1,1-0.2,1.3-0.3
		c0-0.1,0-0.2,0-0.2c0-0.3-0.1-0.5-0.2-0.6c-0.2-0.2-0.5-0.2-0.8-0.2c-0.3,0-0.6,0.1-0.8,0.2c-0.2,0.1-0.3,0.3-0.4,0.6L22,94.1
		c0.1-0.3,0.2-0.6,0.3-0.7c0.1-0.2,0.4-0.3,0.6-0.4c0.3-0.1,0.6-0.2,1-0.2c0.4,0,0.7,0,0.9,0.1s0.4,0.2,0.5,0.3s0.2,0.3,0.2,0.5
		c0,0.1,0,0.4,0,0.7v1c0,0.7,0,1.1,0,1.3c0,0.2,0.1,0.4,0.2,0.5h-0.8C25,97,25,96.8,25,96.6z M24.9,95c-0.3,0.1-0.7,0.2-1.2,0.3
		c-0.3,0-0.5,0.1-0.6,0.1c-0.1,0.1-0.2,0.1-0.3,0.2c-0.1,0.1-0.1,0.2-0.1,0.3c0,0.2,0.1,0.4,0.2,0.5c0.1,0.1,0.4,0.2,0.6,0.2
		c0.3,0,0.5-0.1,0.8-0.2c0.2-0.1,0.4-0.3,0.5-0.5c0.1-0.2,0.1-0.4,0.1-0.7V95z"/>
	<path class="st4" d="M26.8,97.1v-6h0.7v6H26.8z"/>
	<path class="st4" d="M31,97.1v-6h4.3v0.7h-3.5v1.8h3.3v0.7h-3.3v2h3.7v0.7H31z"/>
	<path class="st4" d="M36.5,97.1v-4.3h0.7v0.6c0.3-0.5,0.8-0.7,1.4-0.7c0.3,0,0.5,0,0.7,0.1c0.2,0.1,0.4,0.2,0.5,0.4
		c0.1,0.2,0.2,0.3,0.2,0.5c0,0.1,0,0.4,0,0.7v2.7h-0.7v-2.6c0-0.3,0-0.5-0.1-0.7c-0.1-0.1-0.2-0.3-0.3-0.4c-0.1-0.1-0.3-0.1-0.5-0.1
		c-0.3,0-0.6,0.1-0.8,0.3c-0.2,0.2-0.3,0.6-0.3,1.1v2.4H36.5z"/>
	<path class="st4" d="M41,97.5l0.7,0.1c0,0.2,0.1,0.4,0.2,0.5c0.2,0.1,0.4,0.2,0.7,0.2c0.3,0,0.6-0.1,0.8-0.2
		c0.2-0.1,0.3-0.3,0.4-0.6c0-0.1,0.1-0.5,0.1-0.9c-0.3,0.4-0.7,0.6-1.2,0.6c-0.6,0-1.1-0.2-1.4-0.6c-0.3-0.4-0.5-0.9-0.5-1.5
		c0-0.4,0.1-0.8,0.2-1.1c0.1-0.3,0.4-0.6,0.6-0.8c0.3-0.2,0.6-0.3,1-0.3c0.5,0,0.9,0.2,1.3,0.6v-0.5h0.7v3.7c0,0.7-0.1,1.1-0.2,1.4
		c-0.1,0.3-0.4,0.5-0.7,0.7c-0.3,0.2-0.7,0.2-1.1,0.2c-0.5,0-0.9-0.1-1.2-0.3C41.1,98.3,41,98,41,97.5z M41.6,94.9
		c0,0.6,0.1,1,0.3,1.2c0.2,0.3,0.5,0.4,0.8,0.4c0.3,0,0.6-0.1,0.8-0.4c0.2-0.3,0.3-0.7,0.3-1.2c0-0.5-0.1-0.9-0.4-1.2
		c-0.2-0.3-0.5-0.4-0.8-0.4c-0.3,0-0.6,0.1-0.8,0.4C41.7,94,41.6,94.4,41.6,94.9z"/>
	<path class="st4" d="M45.8,92v-0.8h0.7V92H45.8z M45.8,97.1v-4.3h0.7v4.3H45.8z"/>
	<path class="st4" d="M47.6,97.1v-4.3h0.7v0.6c0.3-0.5,0.8-0.7,1.4-0.7c0.3,0,0.5,0,0.7,0.1c0.2,0.1,0.4,0.2,0.5,0.4
		c0.1,0.2,0.2,0.3,0.2,0.5c0,0.1,0,0.4,0,0.7v2.7h-0.7v-2.6c0-0.3,0-0.5-0.1-0.7c-0.1-0.1-0.2-0.3-0.3-0.4c-0.1-0.1-0.3-0.1-0.5-0.1
		c-0.3,0-0.6,0.1-0.8,0.3c-0.2,0.2-0.3,0.6-0.3,1.1v2.4H47.6z"/>
	<path class="st4" d="M55.2,95.7l0.8,0.1c-0.1,0.4-0.3,0.8-0.7,1c-0.3,0.2-0.7,0.4-1.2,0.4c-0.6,0-1.1-0.2-1.5-0.6
		C52.2,96.3,52,95.7,52,95c0-0.7,0.2-1.3,0.6-1.7c0.4-0.4,0.9-0.6,1.5-0.6c0.6,0,1,0.2,1.4,0.6S56,94.3,56,95c0,0,0,0.1,0,0.2h-3.2
		c0,0.5,0.2,0.8,0.4,1.1c0.2,0.3,0.5,0.4,0.9,0.4c0.3,0,0.5-0.1,0.7-0.2C54.9,96.3,55.1,96.1,55.2,95.7z M52.8,94.6h2.4
		c0-0.4-0.1-0.6-0.3-0.8c-0.2-0.3-0.5-0.4-0.9-0.4c-0.3,0-0.6,0.1-0.8,0.3C52.9,93.9,52.8,94.2,52.8,94.6z"/>
	<path class="st4" d="M59.8,95.7l0.8,0.1c-0.1,0.4-0.3,0.8-0.7,1c-0.3,0.2-0.7,0.4-1.2,0.4c-0.6,0-1.1-0.2-1.5-0.6
		c-0.4-0.4-0.6-0.9-0.6-1.6c0-0.7,0.2-1.3,0.6-1.7c0.4-0.4,0.9-0.6,1.5-0.6c0.6,0,1,0.2,1.4,0.6s0.5,0.9,0.5,1.7c0,0,0,0.1,0,0.2
		h-3.2c0,0.5,0.2,0.8,0.4,1.1c0.2,0.3,0.5,0.4,0.9,0.4c0.3,0,0.5-0.1,0.7-0.2C59.6,96.3,59.7,96.1,59.8,95.7z M57.4,94.6h2.4
		c0-0.4-0.1-0.6-0.3-0.8c-0.2-0.3-0.5-0.4-0.9-0.4c-0.3,0-0.6,0.1-0.8,0.3C57.6,93.9,57.4,94.2,57.4,94.6z"/>
	<path class="st4" d="M61.5,97.1v-4.3h0.7v0.7c0.2-0.3,0.3-0.5,0.5-0.6c0.1-0.1,0.3-0.1,0.5-0.1c0.2,0,0.5,0.1,0.8,0.2l-0.3,0.7
		c-0.2-0.1-0.4-0.2-0.5-0.2c-0.2,0-0.3,0-0.4,0.1c-0.1,0.1-0.2,0.2-0.3,0.4c-0.1,0.3-0.1,0.5-0.1,0.9v2.3H61.5z"/>
	<path class="st4" d="M64.3,92v-0.8H65V92H64.3z M64.3,97.1v-4.3H65v4.3H64.3z"/>
	<path class="st4" d="M66.1,97.1v-4.3h0.7v0.6c0.3-0.5,0.8-0.7,1.4-0.7c0.3,0,0.5,0,0.7,0.1c0.2,0.1,0.4,0.2,0.5,0.4
		c0.1,0.2,0.2,0.3,0.2,0.5c0,0.1,0,0.4,0,0.7v2.7h-0.7v-2.6c0-0.3,0-0.5-0.1-0.7c-0.1-0.1-0.2-0.3-0.3-0.4c-0.1-0.1-0.3-0.1-0.5-0.1
		c-0.3,0-0.6,0.1-0.8,0.3c-0.2,0.2-0.3,0.6-0.3,1.1v2.4H66.1z"/>
	<path class="st4" d="M70.6,97.5l0.7,0.1c0,0.2,0.1,0.4,0.2,0.5c0.2,0.1,0.4,0.2,0.7,0.2c0.3,0,0.6-0.1,0.8-0.2
		c0.2-0.1,0.3-0.3,0.4-0.6c0-0.1,0.1-0.5,0.1-0.9c-0.3,0.4-0.7,0.6-1.2,0.6c-0.6,0-1.1-0.2-1.4-0.6c-0.3-0.4-0.5-0.9-0.5-1.5
		c0-0.4,0.1-0.8,0.2-1.1c0.1-0.3,0.4-0.6,0.6-0.8c0.3-0.2,0.6-0.3,1-0.3c0.5,0,0.9,0.2,1.3,0.6v-0.5h0.7v3.7c0,0.7-0.1,1.1-0.2,1.4
		c-0.1,0.3-0.4,0.5-0.7,0.7c-0.3,0.2-0.7,0.2-1.1,0.2c-0.5,0-0.9-0.1-1.2-0.3C70.7,98.3,70.6,98,70.6,97.5z M71.2,94.9
		c0,0.6,0.1,1,0.3,1.2c0.2,0.3,0.5,0.4,0.8,0.4c0.3,0,0.6-0.1,0.8-0.4c0.2-0.3,0.3-0.7,0.3-1.2c0-0.5-0.1-0.9-0.4-1.2
		c-0.2-0.3-0.5-0.4-0.8-0.4c-0.3,0-0.6,0.1-0.8,0.4C71.3,94,71.2,94.4,71.2,94.9z"/>
	<path class="st4" d="M80.6,94.8v-0.7l2.5,0v2.2c-0.4,0.3-0.8,0.5-1.2,0.7c-0.4,0.2-0.8,0.2-1.3,0.2c-0.6,0-1.1-0.1-1.6-0.4
		c-0.5-0.3-0.8-0.6-1.1-1.1c-0.2-0.5-0.4-1-0.4-1.6c0-0.6,0.1-1.1,0.4-1.6c0.2-0.5,0.6-0.9,1-1.1c0.5-0.2,1-0.4,1.6-0.4
		c0.4,0,0.8,0.1,1.2,0.2c0.3,0.1,0.6,0.3,0.8,0.6c0.2,0.2,0.3,0.6,0.5,1L82.3,93c-0.1-0.3-0.2-0.5-0.3-0.7c-0.1-0.2-0.3-0.3-0.6-0.4
		c-0.2-0.1-0.5-0.2-0.8-0.2c-0.4,0-0.7,0.1-0.9,0.2c-0.3,0.1-0.5,0.3-0.6,0.4c-0.2,0.2-0.3,0.4-0.4,0.6c-0.2,0.4-0.2,0.8-0.2,1.2
		c0,0.5,0.1,1,0.3,1.3c0.2,0.4,0.4,0.6,0.8,0.8c0.4,0.2,0.7,0.3,1.1,0.3c0.3,0,0.7-0.1,1-0.2c0.3-0.1,0.6-0.3,0.7-0.4v-1.1H80.6z"/>
	<path class="st4" d="M84.2,97.1v-4.3h0.7v0.7c0.2-0.3,0.3-0.5,0.5-0.6c0.1-0.1,0.3-0.1,0.5-0.1c0.2,0,0.5,0.1,0.8,0.2l-0.3,0.7
		c-0.2-0.1-0.4-0.2-0.5-0.2c-0.2,0-0.3,0-0.4,0.1c-0.1,0.1-0.2,0.2-0.3,0.4c-0.1,0.3-0.1,0.5-0.1,0.9v2.3H84.2z"/>
	<path class="st4" d="M86.7,95c0-0.8,0.2-1.4,0.7-1.8c0.4-0.3,0.8-0.5,1.4-0.5c0.6,0,1.1,0.2,1.5,0.6c0.4,0.4,0.6,0.9,0.6,1.6
		c0,0.6-0.1,1-0.3,1.3c-0.2,0.3-0.4,0.6-0.7,0.7c-0.3,0.2-0.7,0.3-1,0.3c-0.6,0-1.1-0.2-1.5-0.6C86.8,96.3,86.7,95.7,86.7,95z
		 M87.4,95c0,0.6,0.1,1,0.4,1.2c0.2,0.3,0.5,0.4,0.9,0.4c0.4,0,0.7-0.1,0.9-0.4c0.2-0.3,0.4-0.7,0.4-1.3c0-0.5-0.1-0.9-0.4-1.2
		c-0.2-0.3-0.5-0.4-0.9-0.4c-0.4,0-0.7,0.1-0.9,0.4C87.5,94,87.4,94.4,87.4,95z"/>
	<path class="st4" d="M94.4,97.1v-0.6c-0.3,0.5-0.8,0.7-1.4,0.7c-0.3,0-0.5,0-0.7-0.1c-0.2-0.1-0.4-0.2-0.5-0.4
		c-0.1-0.1-0.2-0.3-0.2-0.5c0-0.1,0-0.4,0-0.7v-2.7h0.7v2.4c0,0.4,0,0.6,0,0.8c0,0.2,0.1,0.3,0.3,0.5c0.1,0.1,0.3,0.2,0.6,0.2
		c0.2,0,0.4-0.1,0.6-0.2c0.2-0.1,0.3-0.3,0.4-0.5c0.1-0.2,0.1-0.5,0.1-0.8v-2.3H95v4.3H94.4z"/>
	<path class="st4" d="M96.2,98.8v-6h0.7v0.6c0.2-0.2,0.3-0.4,0.5-0.5c0.2-0.1,0.4-0.2,0.7-0.2c0.4,0,0.7,0.1,1,0.3
		c0.3,0.2,0.5,0.5,0.6,0.8c0.1,0.3,0.2,0.7,0.2,1.1c0,0.4-0.1,0.8-0.2,1.2c-0.2,0.4-0.4,0.6-0.7,0.8c-0.3,0.2-0.6,0.3-1,0.3
		c-0.2,0-0.5-0.1-0.7-0.2c-0.2-0.1-0.4-0.2-0.5-0.4v2.1H96.2z M96.9,95c0,0.6,0.1,1,0.3,1.2c0.2,0.3,0.5,0.4,0.8,0.4
		c0.3,0,0.6-0.1,0.8-0.4c0.2-0.3,0.3-0.7,0.3-1.3c0-0.6-0.1-1-0.3-1.2c-0.2-0.3-0.5-0.4-0.8-0.4c-0.3,0-0.6,0.1-0.8,0.4
		C97,94,96.9,94.4,96.9,95z"/>
</g>
</svg>
